<svg xmlns="http://www.w3.org/2000/svg" viewBox="0 0 1560.656 190.271">
  <defs>
    <style>
      .cls-1 {
        fill: #ffd584;
      }
    </style>
  </defs>
  <g id="Layer_2" data-name="Layer 2">
    <g id="Layer_1-2" data-name="Layer 1">
      <g>
        <path class="cls-1" d="M861.414,139.173H850.135c-2.083,0-2.88.8-2.88,2.921v22.028c.015,2.126.812,2.936,2.894,2.936l-.014.027h11.279c2.126,0,2.921-.81,2.921-2.934V142.094C864.335,139.97,863.54,139.173,861.414,139.173Z"/>
        <path class="cls-1" d="M1285.146,139.173h-11.281c-2.082,0-2.879.8-2.879,2.921v22.028c0,2.126.8,2.936,2.879,2.936v.027h11.281c2.124,0,2.921-.81,2.921-2.934V142.094C1288.067,139.97,1287.27,139.173,1285.146,139.173Z"/>
        <path class="cls-1" d="M1062.223,149.657v-7.632c0-2.126-.8-2.921-2.921-2.921h-12.985v13.347H1059.3C1061.427,152.451,1062.223,151.654,1062.223,149.657Z"/>
        <path class="cls-1" d="M565.417,113.366v76.9h995.239v-76.9Zm254.09,33.312h-5.1v-4.584c0-2.124-.8-2.921-2.934-2.921H801.1c-2.069,0-2.866.8-2.866,2.921v22.028c0,2.126.8,2.936,2.866,2.936h10.372c2.137,0,2.934-.81,2.934-2.936v-4.571h5.1v4.74c0,4.891-2.389,7.449-7.449,7.449H800.569c-5.047,0-7.451-2.558-7.451-7.449V141.927c0-5.06,2.391-7.45,7.451-7.45h11.489c5.06,0,7.449,2.39,7.449,7.45Zm49.944,17.613c0,5.045-2.4,7.449-7.449,7.449H849.6c-5.046,0-7.45-2.4-7.45-7.449V141.927c0-5.06,2.391-7.45,7.45-7.45H862c5.045,0,7.449,2.39,7.449,7.45Zm50.672,7.436h-5.1l-18.172-29.591v29.591h-4.891l-.042-37.25h5.592l17.722,29v-29h4.893Zm49.355-7.381c0,5.046-2.4,7.45-7.449,7.45H950.636c-5.06-.069-7.449-2.474-7.449-7.52v-4.095h5v4.193c0,2.083.8,2.88,2.923,2.88h10.328c2.124,0,2.921-.8,2.921-2.88V159.8c0-2.292-.95-2.991-3.186-3.522L950.959,154c-4.361-.964-7.674-2.293-7.674-7.618v-4.458c0-5.06,2.4-7.45,7.449-7.45h10.707c5.047,0,7.45,2.39,7.45,7.45v3.662h-5.059v-3.718c0-2.083-.8-2.88-2.881-2.88H951.28c-2.082,0-2.879.8-2.879,2.88v3.955c0,2.293.951,2.978,3.144,3.453l10.259,2.348c4.319.951,7.674,2.278,7.674,7.6Zm49.051-25.242h-11.014v32.623H1002.4V139.1H991.441v-4.627h27.088Zm44.379,32.623-7.618-14.634H1046.3v14.634h-5.1l.014-37.25h18.674c5.045,0,7.449,2.39,7.449,7.45v7.659c0,4.682-2.082,7.073-6.443,7.394l7.6,14.747Zm54.71-7.451c0,5.046-2.39,7.451-7.449,7.451h-11.755c-5.06,0-7.451-2.405-7.451-7.451v-29.8h5.1v29.631c0,2.125.8,2.936,2.879,2.936h10.637c2.138,0,2.935-.811,2.935-2.936V134.477h5.1Zm49.511-17.6h-5.116v-4.584c0-2.124-.8-2.921-2.921-2.921h-10.385c-2.069,0-2.865.8-2.865,2.921v22.028c0,2.126.8,2.936,2.865,2.936h10.385c2.124,0,2.921-.81,2.921-2.936v-4.571h5.116v4.74c0,4.891-2.4,7.449-7.45,7.449h-11.5c-5.046,0-7.45-2.558-7.45-7.449V141.927c0-5.06,2.4-7.45,7.45-7.45h11.5c5.045,0,7.45,2.39,7.45,7.45Zm49.009-7.574h-11.013v32.623h-5.116l-.07-32.623h-10.958v-4.627h27.157Zm27.719,32.623h-5.116v-37.25h5.116Zm49.326-7.436c0,5.045-2.4,7.449-7.451,7.449h-12.4c-5.06,0-7.451-2.4-7.451-7.449V141.927c0-5.06,2.391-7.45,7.451-7.45h12.4c5.046,0,7.451,2.39,7.451,7.45Zm50.669,7.436h-5.1l-18.17-29.591v29.591h-4.906l-.028-37.25h5.59l17.724,29v-29h4.892Z"/>
        <path class="cls-1" d="M670.812,44.466C670.812,14.453,650.771.35,629.457.35H563.91V88.581h65.568C650.771,88.581,670.812,74.458,670.812,44.466ZM596.7,60.853V28.079h22.683c7.051,0,18.651,0,18.651,16.387s-11.6,16.387-18.651,16.387Z"/>
        <path class="cls-1" d="M727.481,89.833c36.171,0,52.934-14.878,52.934-45.506V.271H719.04V28.079h28.6V44.327c0,9.434-3.4,17.876-20.161,17.876S707.3,53.781,707.3,44.327H674.546C674.546,75.094,691.31,89.833,727.481,89.833Z"/>
        <path class="cls-1" d="M808.958,88.581l6.058-15.89h37.56l6.04,15.89h36.051L858.119.35H809.455L772.907,88.581Zm24.808-65.548,10.21,26.974h-20.4Z"/>
        <polygon class="cls-1" points="929.963 36.521 968.02 88.581 1010.825 88.581 1010.825 0.35 978.111 0.35 978.111 52.391 940.054 0.35 897.189 0.35 897.189 88.581 929.963 88.581 929.963 36.521"/>
        <path class="cls-1" d="M1122.813,44.466c0-30.013-20.041-44.116-41.334-44.116h-65.548V88.581h65.548C1102.772,88.581,1122.813,74.458,1122.813,44.466Zm-74.108,16.387V28.079h22.683c7.051,0,18.652,0,18.652,16.387s-11.679,16.387-18.652,16.387Z"/>
        <path class="cls-1" d="M1159.359,67.983h19.287l12.236,20.678h38.812l-15.632-25.346c9.712-5.74,15.632-16.327,15.612-29.2,0-19.664-13.726-33.767-33.767-33.767h-69.321V88.581h32.773Zm0-39.825h30.231c3.337,0,7.31-.1,7.31,5.959s-4.032,6.058-7.31,6.058h-30.231Z"/>
        <path class="cls-1" d="M1274.326,72.691h37.561l6.038,15.89h36.051L1317.429.35h-48.665l-36.547,88.231h36.15ZM1293.1,23.033l10.209,26.974h-20.359Z"/>
        <path class="cls-1" d="M1463.385,44.466c0-30.013-20.045-44.116-41.4-44.116H1356.44V88.581h65.6C1443.34,88.581,1463.385,74.458,1463.385,44.466ZM1389.27,60.853V28.079h22.683c7.058,0,18.658,0,18.658,16.387s-11.6,16.387-18.549,16.387Z"/>
        <polygon class="cls-1" points="1560.428 63.315 1499.926 63.315 1499.926 55.172 1560.428 55.172 1560.428 33.759 1499.926 33.759 1499.926 25.576 1560.428 25.576 1560.428 0.35 1467.084 0.35 1467.084 88.541 1560.428 88.541 1560.428 63.315"/>
        <path class="cls-1" d="M317.5,63.353,280.946,0H171.238L188.3,29.552h25.254l75.575,130.9H238.538L213.45,117.027H188.109L200.78,95,145.906,0H0V190H145.906l12.671-21.872L171.248,190H328.811l27.6-47.758h67.564V190H500V0H354.055ZM76.023,164.805V25.185L116.355,95ZM423.977,25.166v91.7H371.014Z"/>
      </g>
    </g>
  </g>
</svg>
